<mxfile host="app.diagrams.net" agent="Mozilla/5.0 (Windows NT 10.0; Win64; x64) AppleWebKit/537.36 (KHTML, like Gecko) Chrome/136.0.0.0 Safari/537.36 Edg/136.0.0.0" version="27.0.5">
  <diagram name="第 1 页" id="EU1alDa2CIXfniSylTyh">
    <mxGraphModel dx="1447" dy="855" grid="1" gridSize="10" guides="1" tooltips="1" connect="1" arrows="1" fold="1" page="1" pageScale="1" pageWidth="827" pageHeight="1169" math="0" shadow="0">
      <root>
        <mxCell id="0" />
        <mxCell id="1" parent="0" />
        <mxCell id="bAwWkrZDaCntov1XnDNh-10" value="" style="group;sketch=1;curveFitting=1;jiggle=2;" vertex="1" connectable="0" parent="1">
          <mxGeometry x="800" y="330" width="550" height="310" as="geometry" />
        </mxCell>
        <mxCell id="bAwWkrZDaCntov1XnDNh-11" value="" style="rounded=1;whiteSpace=wrap;html=1;sketch=1;curveFitting=1;jiggle=2;" vertex="1" parent="bAwWkrZDaCntov1XnDNh-10">
          <mxGeometry width="550" height="310" as="geometry" />
        </mxCell>
        <mxCell id="bAwWkrZDaCntov1XnDNh-12" value="前端" style="text;html=1;align=center;verticalAlign=middle;whiteSpace=wrap;rounded=0;sketch=1;curveFitting=1;jiggle=2;" vertex="1" parent="bAwWkrZDaCntov1XnDNh-10">
          <mxGeometry x="10" y="19.375" width="80" height="38.75" as="geometry" />
        </mxCell>
        <mxCell id="bAwWkrZDaCntov1XnDNh-59" style="edgeStyle=orthogonalEdgeStyle;rounded=0;orthogonalLoop=1;jettySize=auto;html=1;entryX=0;entryY=0.5;entryDx=0;entryDy=0;sketch=1;curveFitting=1;jiggle=2;" edge="1" parent="bAwWkrZDaCntov1XnDNh-10" source="bAwWkrZDaCntov1XnDNh-56" target="bAwWkrZDaCntov1XnDNh-57">
          <mxGeometry relative="1" as="geometry" />
        </mxCell>
        <mxCell id="bAwWkrZDaCntov1XnDNh-56" value="解码" style="rounded=0;whiteSpace=wrap;html=1;sketch=1;curveFitting=1;jiggle=2;" vertex="1" parent="bAwWkrZDaCntov1XnDNh-10">
          <mxGeometry x="160" y="130" width="90" height="60" as="geometry" />
        </mxCell>
        <mxCell id="bAwWkrZDaCntov1XnDNh-60" style="edgeStyle=orthogonalEdgeStyle;rounded=0;orthogonalLoop=1;jettySize=auto;html=1;entryX=0;entryY=0.5;entryDx=0;entryDy=0;sketch=1;curveFitting=1;jiggle=2;" edge="1" parent="bAwWkrZDaCntov1XnDNh-10" source="bAwWkrZDaCntov1XnDNh-57" target="bAwWkrZDaCntov1XnDNh-58">
          <mxGeometry relative="1" as="geometry" />
        </mxCell>
        <mxCell id="bAwWkrZDaCntov1XnDNh-57" value="SEI获取" style="rounded=0;whiteSpace=wrap;html=1;sketch=1;curveFitting=1;jiggle=2;" vertex="1" parent="bAwWkrZDaCntov1XnDNh-10">
          <mxGeometry x="300" y="130" width="90" height="60" as="geometry" />
        </mxCell>
        <mxCell id="bAwWkrZDaCntov1XnDNh-58" value="渲染" style="rounded=0;whiteSpace=wrap;html=1;sketch=1;curveFitting=1;jiggle=2;" vertex="1" parent="bAwWkrZDaCntov1XnDNh-10">
          <mxGeometry x="440" y="130" width="90" height="60" as="geometry" />
        </mxCell>
        <mxCell id="bAwWkrZDaCntov1XnDNh-66" style="edgeStyle=orthogonalEdgeStyle;rounded=0;sketch=1;hachureGap=4;jiggle=2;curveFitting=1;orthogonalLoop=1;jettySize=auto;html=1;entryX=0;entryY=0.5;entryDx=0;entryDy=0;fontFamily=Architects Daughter;fontSource=https%3A%2F%2Ffonts.googleapis.com%2Fcss%3Ffamily%3DArchitects%2BDaughter;" edge="1" parent="bAwWkrZDaCntov1XnDNh-10" source="bAwWkrZDaCntov1XnDNh-65" target="bAwWkrZDaCntov1XnDNh-56">
          <mxGeometry relative="1" as="geometry" />
        </mxCell>
        <mxCell id="bAwWkrZDaCntov1XnDNh-65" value="拉流" style="rounded=0;whiteSpace=wrap;html=1;sketch=1;curveFitting=1;jiggle=2;" vertex="1" parent="bAwWkrZDaCntov1XnDNh-10">
          <mxGeometry x="20" y="130" width="90" height="60" as="geometry" />
        </mxCell>
        <mxCell id="bAwWkrZDaCntov1XnDNh-9" value="" style="group;sketch=1;curveFitting=1;jiggle=2;" vertex="1" connectable="0" parent="1">
          <mxGeometry x="70" y="330" width="530" height="310" as="geometry" />
        </mxCell>
        <mxCell id="bAwWkrZDaCntov1XnDNh-5" value="" style="rounded=1;whiteSpace=wrap;html=1;sketch=1;curveFitting=1;jiggle=2;" vertex="1" parent="bAwWkrZDaCntov1XnDNh-9">
          <mxGeometry width="530" height="310" as="geometry" />
        </mxCell>
        <mxCell id="bAwWkrZDaCntov1XnDNh-6" value="AI边缘盒子" style="text;html=1;align=center;verticalAlign=middle;whiteSpace=wrap;rounded=0;sketch=1;curveFitting=1;jiggle=2;" vertex="1" parent="bAwWkrZDaCntov1XnDNh-9">
          <mxGeometry x="10" y="19.375" width="80" height="38.75" as="geometry" />
        </mxCell>
        <mxCell id="bAwWkrZDaCntov1XnDNh-36" style="edgeStyle=orthogonalEdgeStyle;rounded=0;orthogonalLoop=1;jettySize=auto;html=1;entryX=0;entryY=0.5;entryDx=0;entryDy=0;sketch=1;curveFitting=1;jiggle=2;" edge="1" parent="bAwWkrZDaCntov1XnDNh-9" source="bAwWkrZDaCntov1XnDNh-13" target="bAwWkrZDaCntov1XnDNh-18">
          <mxGeometry relative="1" as="geometry" />
        </mxCell>
        <mxCell id="bAwWkrZDaCntov1XnDNh-13" value="拉流" style="rounded=0;whiteSpace=wrap;html=1;sketch=1;curveFitting=1;jiggle=2;" vertex="1" parent="bAwWkrZDaCntov1XnDNh-9">
          <mxGeometry x="30" y="100.00333333333334" width="80" height="30.66666666666667" as="geometry" />
        </mxCell>
        <mxCell id="bAwWkrZDaCntov1XnDNh-37" style="edgeStyle=orthogonalEdgeStyle;rounded=0;orthogonalLoop=1;jettySize=auto;html=1;entryX=0;entryY=0.5;entryDx=0;entryDy=0;sketch=1;curveFitting=1;jiggle=2;" edge="1" parent="bAwWkrZDaCntov1XnDNh-9" source="bAwWkrZDaCntov1XnDNh-18" target="bAwWkrZDaCntov1XnDNh-19">
          <mxGeometry relative="1" as="geometry" />
        </mxCell>
        <mxCell id="bAwWkrZDaCntov1XnDNh-54" style="edgeStyle=orthogonalEdgeStyle;rounded=0;orthogonalLoop=1;jettySize=auto;html=1;entryX=0;entryY=0.5;entryDx=0;entryDy=0;sketch=1;curveFitting=1;jiggle=2;" edge="1" parent="bAwWkrZDaCntov1XnDNh-9" source="bAwWkrZDaCntov1XnDNh-18" target="bAwWkrZDaCntov1XnDNh-21">
          <mxGeometry relative="1" as="geometry">
            <Array as="points">
              <mxPoint x="250" y="115" />
              <mxPoint x="250" y="190" />
            </Array>
          </mxGeometry>
        </mxCell>
        <mxCell id="bAwWkrZDaCntov1XnDNh-18" value="Demux" style="rounded=0;whiteSpace=wrap;html=1;sketch=1;curveFitting=1;jiggle=2;" vertex="1" parent="bAwWkrZDaCntov1XnDNh-9">
          <mxGeometry x="150" y="100.00333333333334" width="80" height="30.66666666666667" as="geometry" />
        </mxCell>
        <mxCell id="bAwWkrZDaCntov1XnDNh-38" style="edgeStyle=orthogonalEdgeStyle;rounded=0;orthogonalLoop=1;jettySize=auto;html=1;entryX=0;entryY=0.5;entryDx=0;entryDy=0;sketch=1;curveFitting=1;jiggle=2;" edge="1" parent="bAwWkrZDaCntov1XnDNh-9" source="bAwWkrZDaCntov1XnDNh-19" target="bAwWkrZDaCntov1XnDNh-20">
          <mxGeometry relative="1" as="geometry" />
        </mxCell>
        <mxCell id="bAwWkrZDaCntov1XnDNh-19" value="解码" style="rounded=0;whiteSpace=wrap;html=1;sketch=1;curveFitting=1;jiggle=2;" vertex="1" parent="bAwWkrZDaCntov1XnDNh-9">
          <mxGeometry x="280" y="100.00333333333334" width="80" height="30.66666666666667" as="geometry" />
        </mxCell>
        <mxCell id="bAwWkrZDaCntov1XnDNh-39" style="edgeStyle=orthogonalEdgeStyle;rounded=0;orthogonalLoop=1;jettySize=auto;html=1;entryX=0.5;entryY=0;entryDx=0;entryDy=0;sketch=1;curveFitting=1;jiggle=2;" edge="1" parent="bAwWkrZDaCntov1XnDNh-9" source="bAwWkrZDaCntov1XnDNh-20" target="bAwWkrZDaCntov1XnDNh-21">
          <mxGeometry relative="1" as="geometry" />
        </mxCell>
        <mxCell id="bAwWkrZDaCntov1XnDNh-20" value="AI推理" style="rounded=0;whiteSpace=wrap;html=1;sketch=1;curveFitting=1;jiggle=2;" vertex="1" parent="bAwWkrZDaCntov1XnDNh-9">
          <mxGeometry x="410" y="100.00333333333334" width="80" height="30.66666666666667" as="geometry" />
        </mxCell>
        <mxCell id="bAwWkrZDaCntov1XnDNh-40" style="edgeStyle=orthogonalEdgeStyle;rounded=0;orthogonalLoop=1;jettySize=auto;html=1;entryX=0.5;entryY=0;entryDx=0;entryDy=0;sketch=1;curveFitting=1;jiggle=2;" edge="1" parent="bAwWkrZDaCntov1XnDNh-9" source="bAwWkrZDaCntov1XnDNh-21" target="bAwWkrZDaCntov1XnDNh-22">
          <mxGeometry relative="1" as="geometry" />
        </mxCell>
        <mxCell id="bAwWkrZDaCntov1XnDNh-21" value="SEI叠加" style="rounded=0;whiteSpace=wrap;html=1;sketch=1;curveFitting=1;jiggle=2;" vertex="1" parent="bAwWkrZDaCntov1XnDNh-9">
          <mxGeometry x="410" y="175.42000000000002" width="80" height="30" as="geometry" />
        </mxCell>
        <mxCell id="bAwWkrZDaCntov1XnDNh-22" value="推流" style="rounded=0;whiteSpace=wrap;html=1;sketch=1;curveFitting=1;jiggle=2;" vertex="1" parent="bAwWkrZDaCntov1XnDNh-9">
          <mxGeometry x="410" y="245.41666666666669" width="80" height="30.66666666666667" as="geometry" />
        </mxCell>
        <mxCell id="bAwWkrZDaCntov1XnDNh-41" value="Video AVPacket" style="text;html=1;align=center;verticalAlign=middle;whiteSpace=wrap;rounded=0;fontSize=8;fillColor=#dae8fc;strokeColor=#6c8ebf;sketch=1;curveFitting=1;jiggle=2;" vertex="1" parent="bAwWkrZDaCntov1XnDNh-9">
          <mxGeometry x="230" y="74.06" width="50" height="20" as="geometry" />
        </mxCell>
        <mxCell id="bAwWkrZDaCntov1XnDNh-43" value="AVFrame" style="text;html=1;align=center;verticalAlign=middle;whiteSpace=wrap;rounded=0;fontSize=8;fillColor=#dae8fc;strokeColor=#6c8ebf;sketch=1;curveFitting=1;jiggle=2;" vertex="1" parent="bAwWkrZDaCntov1XnDNh-9">
          <mxGeometry x="360" y="74.06" width="50" height="20" as="geometry" />
        </mxCell>
        <mxCell id="bAwWkrZDaCntov1XnDNh-51" value="Audio Packet|Video Packet|Subtitle Packet..." style="text;html=1;align=center;verticalAlign=middle;whiteSpace=wrap;rounded=0;fontSize=9;fillColor=#dae8fc;strokeColor=#6c8ebf;sketch=1;curveFitting=1;jiggle=2;" vertex="1" parent="bAwWkrZDaCntov1XnDNh-9">
          <mxGeometry x="10" y="84.06" width="200" height="10" as="geometry" />
        </mxCell>
        <mxCell id="bAwWkrZDaCntov1XnDNh-53" value="AI信息" style="text;html=1;align=center;verticalAlign=middle;whiteSpace=wrap;rounded=0;fontSize=8;fillColor=#dae8fc;strokeColor=#6c8ebf;sketch=1;curveFitting=1;jiggle=2;" vertex="1" parent="bAwWkrZDaCntov1XnDNh-9">
          <mxGeometry x="460" y="145" width="50" height="20" as="geometry" />
        </mxCell>
        <mxCell id="bAwWkrZDaCntov1XnDNh-55" value="Video AVPacket" style="text;html=1;align=center;verticalAlign=middle;whiteSpace=wrap;rounded=0;fontSize=8;fillColor=#dae8fc;strokeColor=#6c8ebf;sketch=1;curveFitting=1;jiggle=2;" vertex="1" parent="bAwWkrZDaCntov1XnDNh-9">
          <mxGeometry x="295" y="165" width="50" height="20" as="geometry" />
        </mxCell>
        <mxCell id="bAwWkrZDaCntov1XnDNh-64" style="edgeStyle=orthogonalEdgeStyle;rounded=0;sketch=1;hachureGap=4;jiggle=2;curveFitting=1;orthogonalLoop=1;jettySize=auto;html=1;fontFamily=Architects Daughter;fontSource=https%3A%2F%2Ffonts.googleapis.com%2Fcss%3Ffamily%3DArchitects%2BDaughter;entryX=0;entryY=0.5;entryDx=0;entryDy=0;" edge="1" parent="1" source="bAwWkrZDaCntov1XnDNh-62" target="bAwWkrZDaCntov1XnDNh-65">
          <mxGeometry relative="1" as="geometry">
            <mxPoint x="760" y="510" as="targetPoint" />
          </mxGeometry>
        </mxCell>
        <mxCell id="bAwWkrZDaCntov1XnDNh-62" value="流媒体分发服务" style="rounded=0;whiteSpace=wrap;html=1;sketch=1;hachureGap=4;jiggle=2;curveFitting=1;fontFamily=Architects Daughter;fontSource=https%3A%2F%2Ffonts.googleapis.com%2Fcss%3Ffamily%3DArchitects%2BDaughter;" vertex="1" parent="1">
          <mxGeometry x="630" y="730" width="120" height="60" as="geometry" />
        </mxCell>
        <mxCell id="bAwWkrZDaCntov1XnDNh-63" style="edgeStyle=orthogonalEdgeStyle;rounded=0;sketch=1;hachureGap=4;jiggle=2;curveFitting=1;orthogonalLoop=1;jettySize=auto;html=1;entryX=0;entryY=0.5;entryDx=0;entryDy=0;fontFamily=Architects Daughter;fontSource=https%3A%2F%2Ffonts.googleapis.com%2Fcss%3Ffamily%3DArchitects%2BDaughter;" edge="1" parent="1" source="bAwWkrZDaCntov1XnDNh-22" target="bAwWkrZDaCntov1XnDNh-62">
          <mxGeometry relative="1" as="geometry" />
        </mxCell>
      </root>
    </mxGraphModel>
  </diagram>
</mxfile>
